HIERARCHY
ROOT Hips
{
    OFFSET 0.000000 97.120003 0.000000
    CHANNELS 6 Xposition Yposition Zposition Yrotation Xrotation Zrotation
    JOINT RightUpLeg
    {
        OFFSET -11.000000 -0.000000 0.000000
        CHANNELS 3 Yrotation Xrotation Zrotation
        JOINT RightLeg
        {
            OFFSET 0.000000 -45.062000 0.000000
            CHANNELS 3 Yrotation Xrotation Zrotation
            JOINT RightFoot
            {
                OFFSET 0.000000 -42.057999 0.000000
                CHANNELS 3 Yrotation Xrotation Zrotation
                End Site
                {
                    OFFSET 0.000000 -10.000000 15.120000
                }
            }
        }
    }
    JOINT LeftUpLeg
    {
        OFFSET 11.000000 -0.000000 0.000000
        CHANNELS 3 Yrotation Xrotation Zrotation
        JOINT LeftLeg
        {
            OFFSET 0.000000 -45.062000 0.000000
            CHANNELS 3 Yrotation Xrotation Zrotation
            JOINT LeftFoot
            {
                OFFSET 0.000000 -42.057999 0.000000
                CHANNELS 3 Yrotation Xrotation Zrotation
                End Site
                {
                    OFFSET 0.000000 -10.000000 15.120000
                }
            }
        }
    }
    JOINT Spine
    {
        OFFSET 0.000000 8.120000 0.000000
        CHANNELS 3 Yrotation Xrotation Zrotation
        JOINT Spine1
        {
            OFFSET 0.000000 17.980000 0.000000
            CHANNELS 3 Yrotation Xrotation Zrotation
            JOINT Spine2
            {
                OFFSET 0.000000 12.760000 0.000000
                CHANNELS 3 Yrotation Xrotation Zrotation
                JOINT Neck
                {
                    OFFSET 0.000000 19.139999 0.000000
                    CHANNELS 3 Yrotation Xrotation Zrotation
                    JOINT Neck1
                    {
                        OFFSET 0.000000 4.250000 0.000000
                        CHANNELS 3 Yrotation Xrotation Zrotation
                        JOINT Head
                        {
                            OFFSET 0.000000 4.250000 0.000000
                            CHANNELS 3 Yrotation Xrotation Zrotation
                            End Site
                            {
                                OFFSET 0.000000 19.120001 0.000000
                            }
                        }
                    }
                }
                JOINT RightShoulder
                {
                    OFFSET -2.900000 13.340000 0.000000
                    CHANNELS 3 Yrotation Xrotation Zrotation
                    JOINT RightArm
                    {
                        OFFSET -16.100000 0.000000 0.000000
                        CHANNELS 3 Yrotation Xrotation Zrotation
                        JOINT RightForeArm
                        {
                            OFFSET -28.000000 0.000000 0.000000
                            CHANNELS 3 Yrotation Xrotation Zrotation
                            JOINT RightHand
                            {
                                OFFSET -26.000000 0.000000 0.000000
                                CHANNELS 3 Yrotation Xrotation Zrotation
                                JOINT RightHandThumb1
                                {
                                    OFFSET -1.937000 -0.484000 2.518000
                                    CHANNELS 3 Yrotation Xrotation Zrotation
                                    JOINT RightHandThumb2
                                    {
                                        OFFSET -3.872000 0.000000 0.000000
                                        CHANNELS 3 Yrotation Xrotation Zrotation
                                        JOINT RightHandThumb3
                                        {
                                            OFFSET -2.690000 0.000000 0.000000
                                            CHANNELS 3 Yrotation Xrotation Zrotation
                                            End Site
                                            {
                                                OFFSET -2.537000 0.000000 0.000000
                                            }
                                        }
                                    }
                                }
                                JOINT RightInHandIndex
                                {
                                    OFFSET -3.389000 0.535000 2.080000
                                    CHANNELS 3 Yrotation Xrotation Zrotation
                                    JOINT RightHandIndex1
                                    {
                                        OFFSET -5.485000 -0.096000 1.051000
                                        CHANNELS 3 Yrotation Xrotation Zrotation
                                        JOINT RightHandIndex2
                                        {
                                            OFFSET -3.806000 0.000000 0.000000
                                            CHANNELS 3 Yrotation Xrotation Zrotation
                                            JOINT RightHandIndex3
                                            {
                                                OFFSET -2.158000 0.000000 0.000000
                                                CHANNELS 3 Yrotation Xrotation Zrotation
                                                End Site
                                                {
                                                    OFFSET -1.898000 0.000000 0.000000
                                                }
                                            }
                                        }
                                    }
                                }
                                JOINT RightInHandMiddle
                                {
                                    OFFSET -3.556000 0.544000 0.796000
                                    CHANNELS 3 Yrotation Xrotation Zrotation
                                    JOINT RightHandMiddle1
                                    {
                                        OFFSET -5.441000 -0.088000 0.330000
                                        CHANNELS 3 Yrotation Xrotation Zrotation
                                        JOINT RightHandMiddle2
                                        {
                                            OFFSET -4.153000 0.000000 0.000000
                                            CHANNELS 3 Yrotation Xrotation Zrotation
                                            JOINT RightHandMiddle3
                                            {
                                                OFFSET -2.603000 0.000000 0.000000
                                                CHANNELS 3 Yrotation Xrotation Zrotation
                                                End Site
                                                {
                                                    OFFSET -2.076000 0.000000 0.000000
                                                }
                                            }
                                        }
                                    }
                                }
                                JOINT RightInHandRing
                                {
                                    OFFSET -3.539000 0.566000 -0.136000
                                    CHANNELS 3 Yrotation Xrotation Zrotation
                                    JOINT RightHandRing1
                                    {
                                        OFFSET -4.873000 -0.023000 -0.504000
                                        CHANNELS 3 Yrotation Xrotation Zrotation
                                        JOINT RightHandRing2
                                        {
                                            OFFSET -3.619000 0.000000 0.000000
                                            CHANNELS 3 Yrotation Xrotation Zrotation
                                            JOINT RightHandRing3
                                            {
                                                OFFSET -2.511000 0.000000 0.000000
                                                CHANNELS 3 Yrotation Xrotation Zrotation
                                                End Site
                                                {
                                                    OFFSET -1.952000 0.000000 0.000000
                                                }
                                            }
                                        }
                                    }
                                }
                                JOINT RightInHandPinky
                                {
                                    OFFSET -3.324000 0.494000 -1.264000
                                    CHANNELS 3 Yrotation Xrotation Zrotation
                                    JOINT RightHandPinky1
                                    {
                                        OFFSET -4.354000 -0.023000 -1.147000
                                        CHANNELS 3 Yrotation Xrotation Zrotation
                                        JOINT RightHandPinky2
                                        {
                                            OFFSET -2.898000 0.000000 0.000000
                                            CHANNELS 3 Yrotation Xrotation Zrotation
                                            JOINT RightHandPinky3
                                            {
                                                OFFSET -1.831000 0.000000 0.000000
                                                CHANNELS 3 Yrotation Xrotation Zrotation
                                                End Site
                                                {
                                                    OFFSET -1.730000 0.000000 0.000000
                                                }
                                            }
                                        }
                                    }
                                }
                            }
                        }
                    }
                }
                JOINT LeftShoulder
                {
                    OFFSET 2.900000 13.340000 0.000000
                    CHANNELS 3 Yrotation Xrotation Zrotation
                    JOINT LeftArm
                    {
                        OFFSET 16.100000 0.000000 0.000000
                        CHANNELS 3 Yrotation Xrotation Zrotation
                        JOINT LeftForeArm
                        {
                            OFFSET 28.000000 0.000000 0.000000
                            CHANNELS 3 Yrotation Xrotation Zrotation
                            JOINT LeftHand
                            {
                                OFFSET 26.000000 0.000000 0.000000
                                CHANNELS 3 Yrotation Xrotation Zrotation
                                JOINT LeftHandThumb1
                                {
                                    OFFSET 1.937000 -0.484000 2.518000
                                    CHANNELS 3 Yrotation Xrotation Zrotation
                                    JOINT LeftHandThumb2
                                    {
                                        OFFSET 3.872000 0.000000 0.000000
                                        CHANNELS 3 Yrotation Xrotation Zrotation
                                        JOINT LeftHandThumb3
                                        {
                                            OFFSET 2.690000 0.000000 0.000000
                                            CHANNELS 3 Yrotation Xrotation Zrotation
                                            End Site
                                            {
                                                OFFSET 2.537000 0.000000 0.000000
                                            }
                                        }
                                    }
                                }
                                JOINT LeftInHandIndex
                                {
                                    OFFSET 3.389000 0.535000 2.080000
                                    CHANNELS 3 Yrotation Xrotation Zrotation
                                    JOINT LeftHandIndex1
                                    {
                                        OFFSET 5.485000 -0.096000 1.051000
                                        CHANNELS 3 Yrotation Xrotation Zrotation
                                        JOINT LeftHandIndex2
                                        {
                                            OFFSET 3.806000 0.000000 0.000000
                                            CHANNELS 3 Yrotation Xrotation Zrotation
                                            JOINT LeftHandIndex3
                                            {
                                                OFFSET 2.158000 0.000000 0.000000
                                                CHANNELS 3 Yrotation Xrotation Zrotation
                                                End Site
                                                {
                                                    OFFSET 1.898000 0.000000 0.000000
                                                }
                                            }
                                        }
                                    }
                                }
                                JOINT LeftInHandMiddle
                                {
                                    OFFSET 3.556000 0.544000 0.796000
                                    CHANNELS 3 Yrotation Xrotation Zrotation
                                    JOINT LeftHandMiddle1
                                    {
                                        OFFSET 5.441000 -0.088000 0.330000
                                        CHANNELS 3 Yrotation Xrotation Zrotation
                                        JOINT LeftHandMiddle2
                                        {
                                            OFFSET 4.153000 0.000000 0.000000
                                            CHANNELS 3 Yrotation Xrotation Zrotation
                                            JOINT LeftHandMiddle3
                                            {
                                                OFFSET 2.603000 0.000000 0.000000
                                                CHANNELS 3 Yrotation Xrotation Zrotation
                                                End Site
                                                {
                                                    OFFSET 2.076000 0.000000 0.000000
                                                }
                                            }
                                        }
                                    }
                                }
                                JOINT LeftInHandRing
                                {
                                    OFFSET 3.539000 0.566000 -0.136000
                                    CHANNELS 3 Yrotation Xrotation Zrotation
                                    JOINT LeftHandRing1
                                    {
                                        OFFSET 4.873000 -0.023000 -0.504000
                                        CHANNELS 3 Yrotation Xrotation Zrotation
                                        JOINT LeftHandRing2
                                        {
                                            OFFSET 3.619000 0.000000 0.000000
                                            CHANNELS 3 Yrotation Xrotation Zrotation
                                            JOINT LeftHandRing3
                                            {
                                                OFFSET 2.511000 0.000000 0.000000
                                                CHANNELS 3 Yrotation Xrotation Zrotation
                                                End Site
                                                {
                                                    OFFSET 1.952000 0.000000 0.000000
                                                }
                                            }
                                        }
                                    }
                                }
                                JOINT LeftInHandPinky
                                {
                                    OFFSET 3.324000 0.494000 -1.264000
                                    CHANNELS 3 Yrotation Xrotation Zrotation
                                    JOINT LeftHandPinky1
                                    {
                                        OFFSET 4.354000 -0.023000 -1.147000
                                        CHANNELS 3 Yrotation Xrotation Zrotation
                                        JOINT LeftHandPinky2
                                        {
                                            OFFSET 2.898000 0.000000 0.000000
                                            CHANNELS 3 Yrotation Xrotation Zrotation
                                            JOINT LeftHandPinky3
                                            {
                                                OFFSET 1.831000 0.000000 0.000000
                                                CHANNELS 3 Yrotation Xrotation Zrotation
                                                End Site
                                                {
                                                    OFFSET 1.730000 0.000000 0.000000
                                                }
                                            }
                                        }
                                    }
                                }
                            }
                        }
                    }
                }
            }
        }
    }
}
MOTION
Frames: 4
Frame Time: 0.011111
-44.371517 198.816208 140.562057 27.674263 8.787327 3.208731 172.043823 -154.143524 -175.061127 170.203949 150.346527 173.501114 175.039764 -165.087296 174.308029 149.587448 -146.316605 -167.925140 44.182297 55.049538 17.193056 7.002436 -1.356656 5.132897 0.229609 12.803490 0.353148 0.303726 12.550206 0.656110 1.199273 9.069790 1.144842 179.999161 179.982361 -179.976730 0.000152 0.026105 0.024345 172.184982 179.979050 -179.988083 2.964398 -0.913434 -6.244460 7.673555 -2.380409 73.271545 8.334929 -2.013058 -6.979552 173.953461 -177.210968 -178.476837 47.478664 44.618797 4.800167 0.000048 0.000097 6.194185 0.000023 0.000066 4.125333 0.000000 -0.000000 0.000000 15.000009 0.000010 26.556080 179.999985 179.999985 -158.272293 0.000001 0.000007 15.209400 0.000000 -0.000000 0.000000 0.000133 0.000310 25.483866 179.999985 179.999664 -154.516129 179.999908 179.999802 -163.027740 0.000000 -0.000000 0.000000 169.999634 -179.999115 -158.970398 179.999985 -179.999054 -158.970383 0.000216 -0.000598 14.005733 0.000000 -0.000000 0.000000 160.000061 179.999893 -163.025223 0.000012 0.000193 25.462158 179.999969 179.999878 -163.042206 175.881760 -173.535522 173.381760 164.564575 173.086258 105.793762 171.364120 169.225601 179.727936 8.809577 7.064607 1.054916 137.843277 128.980698 176.554932 0.000025 0.000015 -6.673596 0.000017 -0.000001 -4.444627 0.000000 -0.000000 0.000000 165.000000 -179.999985 158.899719 179.999985 -179.999985 162.736130 179.999985 -180.000000 167.915298 0.000000 -0.000000 0.000000 179.999985 -179.999985 161.954010 179.999985 -179.999985 161.954010 179.999985 180.000000 167.981354 0.000000 -0.000000 0.000000 9.999969 -0.000039 -12.226199 179.999954 -179.999969 167.773804 179.999969 -179.999985 171.857361 0.000000 -0.000000 0.000000 19.999983 -0.000024 -13.944124 179.999969 -179.999969 159.083832 179.999985 -179.999985 166.069839
-44.077061 198.910522 140.960068 27.290340 8.487362 3.164873 172.008530 -154.936462 -175.179581 170.541946 150.674362 173.750977 175.253738 -164.997192 174.331131 148.910110 -146.235855 -168.074844 41.961327 55.332073 14.941701 6.925461 -2.487578 4.843881 0.235029 12.623713 0.364947 0.302843 12.374387 0.664135 1.194643 8.941865 1.150568 179.999207 179.808472 179.902756 0.000116 0.228481 -0.100493 172.532486 179.840515 179.919983 2.921791 -0.727459 -6.123743 7.286317 -2.874347 72.760498 9.272345 -1.677558 -6.331038 174.074051 -177.203949 -178.729767 47.096386 44.861504 4.483111 0.000033 0.000070 6.161292 0.000024 0.000050 4.103408 180.000000 180.000000 -180.000000 14.999952 -0.000121 26.548208 0.000007 -0.000109 21.721256 0.000039 -0.000071 15.204875 180.000000 180.000000 -180.000000 179.999893 -179.999741 -154.579895 0.000016 -0.000287 25.420082 0.000086 -0.000165 16.929785 180.000000 180.000000 -180.000000 169.999680 -179.999207 -158.862091 179.999985 -179.999130 -158.862106 0.000195 -0.000537 14.077842 180.000000 180.000000 -180.000000 160.000015 179.999969 -163.043045 180.000000 179.999954 -154.564560 179.999985 179.999985 -163.059998 176.053772 -173.628036 173.213272 164.685394 172.839096 105.716400 171.489380 168.867889 179.666916 8.746629 7.048884 0.929286 137.631042 128.696548 176.281937 179.999985 -179.999985 173.344376 179.999985 -179.999985 175.567368 0.000000 0.000000 -0.000003 164.999985 -179.999985 158.898239 179.999985 -179.999985 162.734924 179.999985 -179.999985 167.914444 0.000000 0.000000 -0.000003 179.999985 -179.999969 161.941498 179.999969 -179.999985 161.941498 179.999985 -179.999985 167.973038 0.000000 0.000000 -0.000003 9.999956 -0.000062 -12.256960 179.999954 -179.999954 167.743057 179.999969 -179.999985 171.836868 0.000000 0.000000 -0.000003 19.999958 -0.000063 -13.952670 179.999924 -179.999908 159.070999 179.999924 -179.999969 166.061264
-43.790211 199.004227 141.373260 26.911058 8.207901 3.111800 172.351303 -155.723434 -175.355713 170.661392 151.054779 173.943314 175.297760 -164.921082 174.398590 148.818314 -146.130798 -168.355148 39.172653 55.389019 12.389482 6.981054 -3.585929 4.537817 0.241399 12.443888 0.376761 0.304262 12.198430 0.672858 1.200822 8.813542 1.159353 179.999237 179.639343 179.782852 0.000096 0.425379 -0.224708 172.871811 179.704880 179.830536 2.892932 -0.536835 -6.015541 6.880864 -3.394518 72.339027 10.247310 -1.362902 -5.699652 174.187088 -177.225525 -179.009140 46.732132 45.074013 4.176853 0.000041 0.000063 6.132363 0.000008 0.000037 4.084155 0.000000 -0.000000 0.000000 14.999943 -0.000140 26.565342 0.000008 -0.000122 21.735283 0.000035 -0.000074 15.214694 0.000000 -0.000000 0.000000 0.000003 0.000012 25.472313 0.000003 0.000012 25.472311 180.000000 179.999985 -163.035461 0.000000 -0.000000 0.000000 169.999741 -179.999313 -158.739944 0.000001 -0.000733 21.260054 0.000181 -0.000453 14.159183 0.000000 -0.000000 0.000000 160.000000 -179.999985 -163.049988 180.000000 -179.999985 -154.574982 0.000003 -0.000004 16.933088 176.222031 -173.717010 173.037674 164.944122 172.664352 105.538330 171.623032 168.414108 179.694183 8.684173 7.095625 0.885095 137.379929 128.449173 175.983795 0.000021 0.000013 -6.638554 0.000013 0.000007 -4.421278 0.000000 -0.000000 0.000000 164.999954 -179.999954 158.888596 179.999954 -179.999985 162.727051 179.999969 -179.999985 167.908951 0.000000 -0.000000 0.000000 179.999924 -179.999878 161.936111 179.999863 -179.999893 161.936096 179.999893 -179.999969 167.969467 0.000000 -0.000000 0.000000 9.999964 -0.000065 -12.317412 179.999969 -179.999954 167.682587 179.999969 -179.999985 171.796600 0.000000 -0.000000 0.000000 19.999968 -0.000093 -14.013997 179.999924 -179.999893 158.978989 179.999924 -179.999954 166.000015
-43.506519 199.095673 141.768005 26.534683 7.947239 3.051786 172.416718 -156.488861 -175.463120 170.913071 151.434891 174.157852 175.474594 -164.858612 174.426849 149.188141 -146.021118 -168.747253 36.230179 55.154743 9.824741 7.109453 -4.567096 4.326097 0.251015 12.269938 0.386750 0.308734 12.028179 0.679569 1.222253 8.689016 1.168455 179.999283 179.479965 179.666016 0.000067 0.610976 -0.345717 173.197723 179.576355 179.745438 2.872060 -0.360099 -5.915827 6.531036 -3.928838 71.953880 11.202364 -1.144845 -5.045635 174.321487 -177.279648 -179.307449 46.387428 45.268108 3.873589 0.000015 0.000028 6.099924 0.000004 0.000017 4.062560 0.000000 0.000000 -0.000003 14.999952 -0.000155 26.591473 0.000010 -0.000131 21.756638 0.000041 -0.000082 15.229660 0.000000 0.000000 -0.000003 179.999985 -179.999985 -154.531677 180.000000 -179.999985 -154.531693 0.000005 -0.000009 16.961899 0.000000 0.000000 -0.000003 169.999832 -179.999512 -158.597656 0.000017 -0.000518 21.402338 0.000133 -0.000313 14.253961 0.000000 0.000000 -0.000003 160.000000 -179.999985 -163.047333 180.000000 -179.999985 -154.570999 0.000002 -0.000007 16.935713 176.382126 -173.786484 172.862793 164.979004 172.457352 105.527161 171.720886 168.203506 179.604782 8.603760 7.133759 0.851597 137.863327 128.899460 176.269165 179.999985 -179.999985 173.189011 179.999985 -179.999985 175.463882 0.000000 -0.000000 0.000000 164.999969 -179.999954 158.830261 179.999969 -179.999985 162.679306 179.999969 -179.999985 167.875504 0.000000 -0.000000 0.000000 179.999985 -179.999954 161.775284 179.999969 -179.999969 161.775269 179.999969 -179.999985 167.862350 0.000000 -0.000000 0.000000 9.999970 -0.000058 -12.386172 179.999969 -179.999954 167.613846 179.999985 -179.999985 171.750824 0.000000 -0.000000 0.000000 19.999971 -0.000072 -14.111125 179.999954 -179.999893 158.833328 179.999939 -179.999954 165.902985
